<svg width="113" height="42" viewBox="0 0 113 42" fill="none" xmlns="http://www.w3.org/2000/svg">
<g clip-path="url(#clip0_122_1585)">
<path d="M24.7433 18.8928C24.7433 23.5754 23.8537 26.9823 22.0766 29.1155C20.2995 31.2466 17.7277 32.3122 14.3655 32.3122C10.5532 32.3122 7.3334 31.1488 4.70799 28.8241C1.56864 26.0479 0 22.0583 0 16.8574C0 11.6566 1.58928 7.63788 4.76578 4.40791C7.49439 1.63163 10.4129 0.241415 13.5275 0.241415C15.0363 0.241415 16.351 0.516129 17.4759 1.06556C18.9186 1.77732 20.2355 2.93861 21.4223 4.55359L23.7814 0H24.0209V14.0479L23.637 13.8065C23.637 9.65453 22.4956 6.32466 20.2169 3.81478C18.3221 1.72321 16.3304 0.676379 14.2437 0.676379C11.449 0.676379 9.44281 1.97503 8.22092 4.57024C7.0011 7.16753 6.39015 11.076 6.39015 16.2997C6.39015 21.5234 7.04857 25.3049 8.3654 27.9313C9.68224 30.5578 11.6884 31.8731 14.3861 31.8731C17.4367 31.8731 19.7814 30.9698 21.4202 29.1592C23.379 27.0281 24.3594 23.6046 24.3594 18.8887H24.7433V18.8928Z" fill="white"/>
<path d="M34.3512 29.5484C34.3512 30.1957 34.3987 30.6161 34.4957 30.8096C34.5597 30.9074 34.7041 31.0032 34.9271 31.101C35.5999 31.3278 36.9931 31.4402 39.1067 31.4402V31.8752H25.0776V31.4402C26.0064 31.4402 26.8465 31.409 27.5998 31.3424C28.3511 31.2779 29.0013 31.1488 29.5462 30.9532C29.7382 30.7909 29.8352 30.3226 29.8352 29.5443V3.59213C29.8352 2.94489 29.7382 2.49119 29.5462 2.23105C29.3542 1.97298 29.1623 1.81065 28.9703 1.74406C28.3945 1.58173 27.1127 1.50056 25.1272 1.50056V1.0656L34.3512 0.241455V29.5463V29.5484Z" fill="white"/>
<path d="M56.2111 21.7024C56.2111 24.8346 55.1378 27.436 52.9912 29.5026C51.0366 31.3757 48.8426 32.3122 46.4091 32.3122C43.9757 32.3122 41.7321 31.4402 39.8745 29.6962C37.697 27.6608 36.6072 24.9969 36.6072 21.7024C36.6072 18.4079 37.6805 15.9854 39.827 13.9521C41.7796 12.1103 43.9757 11.1904 46.4091 11.1904C48.8426 11.1904 51.0531 12.0624 52.9438 13.8065C55.1213 15.8085 56.2111 18.4412 56.2111 21.7024ZM51.2141 21.7024C51.2141 18.1186 50.9087 15.5983 50.3018 14.1457C49.5959 12.4662 48.2998 11.6275 46.4112 11.6275C44.6816 11.6275 43.4473 12.435 42.7125 14.05C41.9756 15.6649 41.6083 18.2164 41.6083 21.7045C41.6083 25.1925 41.9364 27.8418 42.5928 29.4547C43.2491 31.0697 44.5226 31.8772 46.4133 31.8772C48.1429 31.8772 49.3751 31.0531 50.1119 29.4069C50.8488 27.7586 51.2162 25.1925 51.2162 21.7045L51.2141 21.7024Z" fill="white"/>
<path d="M68.752 21.5567V23.7856C68.752 24.5286 68.7685 25.2383 68.7994 25.9167C68.7994 28.1769 68.5435 29.7273 68.0316 30.5681C67.3258 31.7315 65.9656 32.3121 63.947 32.3121C61.9284 32.3121 60.6157 31.8439 59.7199 30.9073C58.8221 29.9708 58.3742 28.6306 58.3742 26.8865V13.128H54.531V12.693C57.1585 12.0437 59.1379 10.5036 60.4691 8.07072C61.5404 6.12483 62.0749 3.93545 62.0749 1.50256H62.8923V11.7252H68.4176V13.13H62.8923V26.2726C62.8923 28.0124 62.9542 29.1404 63.0801 29.6545C63.3938 30.8782 64.1018 31.4901 65.204 31.4901C66.494 31.4901 67.3423 30.7825 67.7509 29.3694C68.0337 28.4058 68.1761 26.5744 68.1761 23.873V21.5588H68.752V21.5567Z" fill="white"/>
<path d="M78.1679 19.8044V29.5401C78.1679 30.1894 78.2153 30.6119 78.3123 30.8055C78.3763 30.9033 78.5291 31.0011 78.7685 31.0968C79.0079 31.1946 79.4414 31.2758 80.0667 31.3403C80.6921 31.4048 81.2432 31.4381 81.7241 31.4381V31.8731H68.8964V31.4381C69.8252 31.4381 70.6652 31.4069 71.4186 31.3403C72.1699 31.2758 72.82 31.1468 73.3649 30.9511C73.5569 30.7888 73.6539 30.3185 73.6539 29.5401V4.08121C73.6539 3.65873 73.6456 3.30285 73.6291 3.00941C73.6126 2.71804 73.5404 2.48911 73.4124 2.32678C73.1874 2.00212 72.981 1.80857 72.787 1.74406C72.2112 1.58173 70.9294 1.50056 68.9438 1.50056V1.0656L78.1679 0.241455V17.3903C78.3598 16.0979 78.8242 14.8554 79.5611 13.6608C80.4899 12.1749 81.5941 11.3674 82.8759 11.2383C83.1318 11.2383 83.4125 11.2217 83.7159 11.1905C84.0193 11.1592 84.236 11.1426 84.364 11.1426C86.6055 11.1426 88.2877 11.7586 89.4084 12.9886C90.3042 13.9917 90.7542 15.2217 90.7542 16.6785V29.5463C90.7542 30.1936 90.8016 30.6161 90.8986 30.8096C90.9626 30.9053 91.1215 31.0032 91.3795 31.101C91.6355 31.1967 92.0999 31.2779 92.7727 31.3445C93.4456 31.4111 94.1185 31.4423 94.7913 31.4423V31.8773H82.3949V31.4423C82.9068 31.4423 83.4992 31.4111 84.172 31.3445C84.8449 31.2779 85.4373 31.1509 85.9492 30.9553C86.1411 30.793 86.2381 30.3226 86.2381 29.5443V16.3996C86.2381 15.0032 86.0936 13.9647 85.8067 13.2841C85.3589 12.2144 84.5085 11.6775 83.2598 11.6775C81.914 11.6775 80.7623 12.5703 79.8005 14.3538C78.9997 15.8481 78.4548 17.665 78.1679 19.8065V19.8044Z" fill="white"/>
<path d="M101.324 36.5182C100.651 38.4912 100.026 39.8668 99.4498 40.6431C98.7769 41.5484 97.9121 42.0021 96.8553 42.0021C95.5096 42.0021 94.5168 41.8647 93.877 41.59C93.2351 41.3153 92.8285 40.847 92.651 40.1852C92.4755 39.5234 92.3868 38.999 92.3868 38.6098C92.3868 37.64 92.8388 36.9136 93.7449 36.4308C94.0999 36.2373 94.4714 36.1394 94.8615 36.1394C95.4766 36.1394 96.0173 36.3725 96.4859 36.8429C96.9544 37.3111 97.1897 37.9334 97.1897 38.7076C97.1897 40.0957 96.5437 40.8699 95.2475 41.0323C95.4704 41.2841 95.7036 41.4277 95.943 41.4631C96.1825 41.4984 96.4301 41.5172 96.6881 41.5172C97.553 41.5172 98.2568 41.1842 98.7996 40.5182C99.3445 39.8522 99.9204 38.6264 100.529 36.8408L102.067 32.4579L95.1236 13.4714C94.8347 12.7263 94.6592 12.2893 94.5952 12.1603C94.4033 11.8377 93.8419 11.6753 92.9131 11.6753H91.8088V11.1904H102.81V11.6753C102.073 11.6753 101.328 11.6837 100.577 11.7003C99.8234 11.717 99.4477 11.9188 99.4477 12.308L99.7367 13.2799L104.383 25.7732L107.613 16.2456C107.999 15.1113 108.191 14.2373 108.191 13.6212C108.191 12.3247 107.118 11.6774 104.971 11.6774V11.1925H112.994V11.6774C111.776 11.6774 110.831 11.9771 110.16 12.5744C109.487 13.1738 108.734 14.6681 107.902 17.0614L101.32 36.5182H101.324Z" fill="white"/>
</g>
<defs>
<clipPath id="clip0_122_1585">
<rect width="113" height="42" fill="white"/>
</clipPath>
</defs>
</svg>
