<svg width="304" height="492" viewBox="0 0 304 492" fill="none" xmlns="http://www.w3.org/2000/svg">
<mask id="mask0_87_805" style="mask-type:luminance" maskUnits="userSpaceOnUse" x="0" y="0" width="304" height="492">
<path d="M304 0H0V491.349H304V0Z" fill="white"/>
</mask>
<g mask="url(#mask0_87_805)">
<path d="M151.992 21.7614C80.0103 21.7614 21.6392 80.4619 21.6392 152.849V190.039C21.6392 190.24 21.6392 190.442 21.6392 190.643C21.6392 209.691 24.6376 226.611 30.5681 241.335C36.3653 255.742 44.9943 268.022 56.3887 278.091C71.7477 291.677 90.072 299.901 110.995 302.683C116.309 303.387 121.773 303.754 127.42 303.754C132.651 303.754 137.615 303.387 142.346 302.666C160.354 299.986 174.847 292.213 185.491 279.48C190.972 272.948 195.32 264.823 198.535 255.157C201.767 245.491 203.849 234.266 204.798 221.568C204.848 220.914 204.882 220.26 204.933 219.608C204.982 218.972 205.032 218.318 205.065 217.664C204.433 217.028 203.782 216.459 203.116 215.921C202.833 215.688 202.566 215.453 202.283 215.251C201.384 214.498 200.451 213.811 199.486 213.208C199.486 213.544 199.486 213.878 199.468 214.214C199.434 215.052 199.418 215.905 199.385 216.743C197.985 243.179 191.905 262.863 181.094 275.762C171.415 287.305 158.405 294.323 142.046 296.87C137.432 297.589 132.551 297.975 127.404 297.975C124.538 297.975 121.756 297.876 119.008 297.69C116.892 297.556 114.793 297.356 112.728 297.105C112.711 297.105 112.694 297.105 112.678 297.105C111.778 297.004 110.829 296.852 109.929 296.702C109.912 296.702 109.896 296.702 109.862 296.702C107.713 296.418 105.614 296.015 103.549 295.564C102.849 295.412 102.133 295.278 101.433 295.112C100.45 294.91 99.5008 294.659 98.5512 294.408C95.686 293.653 92.904 292.766 90.1721 291.76C79.1775 287.724 69.1825 281.743 60.1701 273.768C49.2422 264.135 41.0296 252.392 35.5657 238.537C30.1017 224.684 27.3697 208.735 27.3697 190.677C27.3697 155.463 38.4309 126.648 60.5699 104.217C75.6292 88.9219 91.5213 79.7081 108.28 76.5419C112.661 75.7043 117.092 75.2686 121.59 75.2686C129.852 75.2686 137.282 76.4749 143.879 78.8369C145.661 79.4735 147.394 80.1771 149.06 80.9979C156.989 84.9013 164.369 90.7478 171.199 98.5545C173.031 100.649 174.814 102.86 176.563 105.239L192.988 73.5934H194.653V171.16L193.305 170.322L191.972 169.484C191.972 140.637 184.042 117.535 168.15 100.096C165.302 96.9631 162.436 94.199 159.521 91.7362C151.825 85.2363 143.896 81.0817 135.749 79.306C132.718 78.6527 129.636 78.3008 126.537 78.3008C118.941 78.3008 112.195 79.6913 106.264 82.4388C97.0186 86.7273 89.7889 94.3497 84.5914 105.339C82.8257 109.092 81.2597 113.263 79.8605 117.82C74.5465 135.108 71.8644 158.093 71.8644 186.806C71.8644 204.463 72.9971 219.976 75.246 233.361C77.5283 246.981 80.9766 258.389 85.591 267.587C88.4728 273.299 91.8213 278.107 95.6359 281.994C96.6354 283.015 97.6517 283.987 98.7178 284.874C99.6173 285.696 100.567 286.416 101.516 287.07C102.433 287.773 103.399 288.427 104.365 288.913C105.231 289.516 106.114 289.984 107.014 290.369C107.93 290.907 108.879 291.324 109.862 291.693C110.812 292.079 111.761 292.448 112.744 292.733C117.292 294.222 122.206 294.944 127.537 294.944C148.776 294.944 165.118 288.694 176.513 276.097C188.706 262.863 195.436 242.525 196.719 214.967C196.803 213.878 196.836 212.773 196.87 211.649C195.936 211.114 194.987 210.661 194.021 210.242C194.021 211.331 193.971 212.388 193.904 213.459C192.82 240.883 186.258 261.27 174.38 274.171C163.602 286.048 147.827 292.063 127.537 292.063C122.173 292.063 117.259 291.292 112.761 289.733C112.461 289.617 112.111 289.532 111.811 289.397C111.245 289.198 110.679 288.98 110.129 288.728C110.046 288.712 109.996 288.66 109.912 288.644C108.929 288.226 107.98 287.773 107.064 287.238C106.164 286.752 105.315 286.25 104.432 285.696C103.482 285.076 102.549 284.406 101.65 283.635C100.7 282.898 99.7673 282.094 98.8843 281.223C98.9343 280.033 99.0176 278.878 99.1176 277.706C99.1176 277.571 99.1342 277.437 99.1508 277.32C101.05 251.889 107.53 232.457 118.475 219.389C131.935 203.307 151.475 195.133 176.546 195.133C204.415 195.133 228.321 203.744 247.578 220.798C270.632 241.118 282.327 270.551 282.327 308.245V152.866C282.327 116.681 267.718 83.913 244.129 60.1746C220.525 36.4365 187.956 21.7614 151.958 21.7614H151.992Z" fill="white"/>
<path d="M151.992 0C68.1998 0 0 68.5845 0 152.849V338.483C0 422.765 68.1998 491.333 151.992 491.333C235.784 491.333 304 422.765 304 338.483V152.849C304 68.5845 235.817 0 151.992 0ZM295.522 338.5C295.522 418.09 231.135 482.839 151.992 482.839C72.8474 482.839 8.47914 418.09 8.47914 338.5V152.866C8.47914 73.2751 72.864 8.52699 151.992 8.52699C231.12 8.52699 295.522 73.2751 295.522 152.866V338.5Z" fill="white"/>
<path d="M243.829 225.135C232.569 215.202 219.792 208.316 205.449 204.53C204.498 204.246 203.549 204.011 202.566 203.827C201.584 203.592 200.585 203.392 199.585 203.173C198.768 203.007 197.936 202.839 197.103 202.687C196.12 202.503 195.136 202.335 194.137 202.185C193.188 202.017 192.205 201.884 191.255 201.766C186.507 201.163 181.627 200.895 176.579 200.895C153.157 200.895 135.25 208.282 122.889 223.11C112.078 236.024 105.997 255.708 104.598 282.161C105.464 282.798 106.347 283.4 107.247 283.904C108.529 256.362 115.26 236.008 127.453 222.791C138.848 210.209 155.173 203.943 176.429 203.943C181.76 203.943 186.673 204.68 191.223 206.172C192.205 206.457 193.155 206.826 194.104 207.211C194.586 207.395 195.07 207.597 195.553 207.814C196.02 208.031 196.486 208.267 196.953 208.533C197.852 208.936 198.752 209.405 199.6 209.992C200.585 210.511 201.55 211.147 202.45 211.851C202.932 212.187 203.416 212.521 203.883 212.906C204.35 213.275 204.798 213.643 205.232 214.046C210.346 218.334 214.726 224.131 218.358 231.333C227.521 249.595 232.102 276.516 232.102 312.114C232.102 347.714 227.855 375.539 219.375 393.565C210.863 411.607 196.903 420.603 177.43 420.603C162.886 420.603 149.01 413.332 135.833 398.825C119.94 381.386 112.011 358.268 112.011 329.437L109.329 327.744V425.328H110.995L127.42 393.682C135.716 404.923 144.878 412.965 154.923 417.906C162.736 421.726 171.898 423.635 182.393 423.635C204.099 423.635 224.422 413.968 243.396 394.687C265.535 372.239 276.597 343.442 276.597 308.228C276.597 273.015 265.652 244.402 243.813 225.135H243.829Z" fill="white"/>
<path d="M104.598 282.161V286.501L106.997 287.773L107.247 283.904L104.598 282.161Z" fill="white"/>
<path d="M282.26 329.504C281.894 339.807 280.611 349.455 278.428 358.418C278.428 358.469 278.413 358.503 278.397 358.536C278.146 359.54 277.879 360.546 277.63 361.534C275.297 370.162 272.082 378.153 268.001 385.474C256.523 413.132 235.55 435.832 209.196 449.434C192.038 458.314 172.598 463.305 152.008 463.305C99.6841 463.305 54.7229 430.957 35.8821 385.122C29.7519 370.279 26.3869 354.012 26.3869 336.991V304.861C26.0537 291.039 22.1556 253.129 21.7392 241.638H21.6226V336.991C21.6226 354.65 25.1041 371.502 31.4343 386.881C50.9914 434.508 97.6683 468.096 151.992 468.096C174.814 468.096 196.287 462.167 214.96 451.763C255.107 429.398 282.361 386.327 282.361 336.991V323.306C282.361 325.398 282.327 327.459 282.244 329.504H282.26Z" fill="white"/>
<path d="M21.6392 241.62C22.0223 243.766 22.6721 246.344 23.7882 249.142C24.5544 251.069 25.4206 252.726 26.2536 254.135V301.124" fill="white"/>
</g>
</svg>
